<svg width="944" height="199" viewBox="0 0 944 199" fill="none" xmlns="http://www.w3.org/2000/svg">
<g filter="url(#filter0_ii_1666_203)">
<path d="M0 50.4401C0 22.5828 22.5828 0 50.44 0H148.539C176.396 0 198.979 22.5828 198.979 50.44V148.539C198.979 176.396 176.396 198.979 148.539 198.979H50.4401C22.5828 198.979 0 176.396 0 148.539V50.4401Z" fill="url(#paint0_linear_1666_203)"/>
</g>
<path d="M79.222 149.808C73.4842 149.808 70.6152 148.301 70.6152 145.289V54.8284C70.6152 52.8379 71.071 51.4123 71.9827 50.5515C72.8943 49.637 74.3422 49.1797 76.3263 49.1797H124.106C125.607 49.1797 126.68 49.7446 127.323 50.8743C128.021 52.004 128.369 53.8332 128.369 56.3616V60.7192C128.369 63.2477 128.021 65.0768 127.323 66.2065C126.68 67.3363 125.607 67.9012 124.106 67.9012H92.655V88.8821H123.06C124.562 88.8821 125.661 89.447 126.358 90.5767C127.055 91.7065 127.404 93.5087 127.404 95.9834V100.422C127.404 102.95 127.055 104.806 126.358 105.99C125.661 107.119 124.562 107.684 123.06 107.684H92.655V145.289C92.655 148.301 89.7861 149.808 84.0482 149.808H79.222Z" fill="white"/>
<path d="M901.961 146.03V75.3239H920.091V92.2881L918.796 89.8276C920.35 83.8707 922.896 79.8563 926.436 77.7843C930.062 75.626 934.335 74.5469 939.256 74.5469H943.4V91.3816H937.314C932.566 91.3816 928.724 92.8492 925.789 95.7845C922.853 98.6334 921.386 102.691 921.386 107.957V146.03H901.961Z" fill="black"/>
<path d="M814.828 171.927V75.3216H832.958V88.7893L831.274 84.9044C833.605 81.3648 836.756 78.6453 840.728 76.746C844.785 74.7604 849.404 73.7676 854.584 73.7676C861.318 73.7676 867.404 75.4079 872.843 78.6885C878.282 81.9691 882.599 86.4152 885.793 92.0267C888.987 97.552 890.584 103.768 890.584 110.674C890.584 117.495 888.987 123.711 885.793 129.322C882.685 134.934 878.411 139.38 872.973 142.66C867.534 145.941 861.361 147.581 854.454 147.581C849.62 147.581 845.131 146.718 840.987 144.991C836.929 143.178 833.648 140.545 831.145 137.092L834.253 133.077V171.927H814.828ZM852.123 130.099C855.749 130.099 858.944 129.279 861.706 127.639C864.469 125.998 866.627 123.711 868.181 120.775C869.735 117.84 870.512 114.473 870.512 110.674C870.512 106.876 869.735 103.552 868.181 100.703C866.627 97.7678 864.469 95.48 861.706 93.8397C858.944 92.1131 855.749 91.2498 852.123 91.2498C848.67 91.2498 845.562 92.0699 842.8 93.7102C840.123 95.3505 838.008 97.6383 836.454 100.574C834.987 103.509 834.253 106.876 834.253 110.674C834.253 114.473 834.987 117.84 836.454 120.775C838.008 123.711 840.123 125.998 842.8 127.639C845.562 129.279 848.67 130.099 852.123 130.099Z" fill="black"/>
<path d="M769.721 147.581C762.21 147.581 755.692 145.941 750.167 142.66C744.642 139.293 740.368 134.804 737.347 129.193C734.325 123.581 732.814 117.365 732.814 110.545C732.814 103.466 734.368 97.1635 737.476 91.6383C740.671 86.113 744.944 81.7533 750.297 78.559C755.649 75.3647 761.692 73.7676 768.426 73.7676C774.038 73.7676 779.002 74.6741 783.319 76.487C787.635 78.2137 791.261 80.6741 794.196 83.8684C797.218 87.0627 799.506 90.7749 801.06 95.0052C802.614 99.1491 803.391 103.682 803.391 108.602C803.391 109.984 803.304 111.365 803.132 112.746C803.045 114.041 802.83 115.164 802.484 116.113H749.52V101.869H791.477L782.283 108.602C783.146 104.89 783.103 101.61 782.153 98.7606C781.203 95.8253 779.52 93.5375 777.103 91.8972C774.772 90.1706 771.88 89.3073 768.426 89.3073C765.059 89.3073 762.167 90.1274 759.75 91.7678C757.333 93.4081 755.52 95.8253 754.311 99.0196C753.102 102.214 752.628 106.099 752.887 110.674C752.541 114.646 753.016 118.142 754.311 121.164C755.606 124.185 757.592 126.559 760.268 128.286C762.944 129.926 766.182 130.747 769.98 130.747C773.434 130.747 776.369 130.056 778.786 128.675C781.29 127.293 783.232 125.394 784.614 122.977L800.153 130.358C798.772 133.811 796.57 136.833 793.549 139.423C790.614 142.013 787.117 144.042 783.06 145.509C779.002 146.891 774.556 147.581 769.721 147.581Z" fill="black"/>
<path d="M690.557 147.581C683.046 147.581 676.528 145.941 671.003 142.66C665.478 139.293 661.204 134.804 658.183 129.193C655.161 123.581 653.65 117.365 653.65 110.545C653.65 103.466 655.204 97.1635 658.312 91.6383C661.507 86.113 665.78 81.7533 671.133 78.559C676.485 75.3647 682.528 73.7676 689.262 73.7676C694.874 73.7676 699.838 74.6741 704.154 76.487C708.471 78.2137 712.097 80.6741 715.032 83.8684C718.054 87.0627 720.342 90.7749 721.896 95.0052C723.45 99.1491 724.227 103.682 724.227 108.602C724.227 109.984 724.14 111.365 723.968 112.746C723.881 114.041 723.665 115.164 723.32 116.113H670.356V101.869H712.313L703.119 108.602C703.982 104.89 703.939 101.61 702.989 98.7606C702.039 95.8253 700.356 93.5375 697.939 91.8972C695.608 90.1706 692.716 89.3073 689.262 89.3073C685.895 89.3073 683.003 90.1274 680.586 91.7678C678.169 93.4081 676.356 95.8253 675.147 99.0196C673.938 102.214 673.464 106.099 673.723 110.674C673.377 114.646 673.852 118.142 675.147 121.164C676.442 124.185 678.428 126.559 681.104 128.286C683.78 129.926 687.018 130.747 690.816 130.747C694.269 130.747 697.205 130.056 699.622 128.675C702.126 127.293 704.068 125.394 705.449 122.977L720.989 130.358C719.608 133.811 717.406 136.833 714.385 139.423C711.45 142.013 707.953 144.042 703.895 145.509C699.838 146.891 695.392 147.581 690.557 147.581Z" fill="black"/>
<path d="M581.885 146.03V48H601.309V110.806L594.058 108.475L625.266 75.324H649.224L623.583 103.813L649.094 146.03H627.079L605.712 110.159L616.979 107.31L595.353 130.878L601.309 119.612V146.03H581.885Z" fill="black"/>
<path d="M461.619 146.027V75.3216H479.749V92.5447L477.806 89.6958C478.842 84.2569 481.346 80.2425 485.317 77.6525C489.288 75.0626 494.037 73.7676 499.562 73.7676C505.433 73.7676 510.569 75.2784 514.972 78.3C519.461 81.2353 522.267 85.2065 523.39 90.2138L517.821 90.7318C520.152 84.9475 523.476 80.6741 527.792 77.9115C532.109 75.1489 537.159 73.7676 542.944 73.7676C548.037 73.7676 552.526 74.8899 556.411 77.1345C560.383 79.3791 563.491 82.5303 565.735 86.5878C567.98 90.5591 569.102 95.221 569.102 100.574V146.027H549.678V104.718C549.678 101.955 549.16 99.5808 548.124 97.5951C547.174 95.6095 545.793 94.0555 543.98 92.9332C542.167 91.8109 539.965 91.2498 537.375 91.2498C534.872 91.2498 532.67 91.8109 530.771 92.9332C528.958 94.0555 527.533 95.6095 526.497 97.5951C525.548 99.5808 525.073 101.955 525.073 104.718V146.027H505.648V104.718C505.648 101.955 505.13 99.5808 504.094 97.5951C503.145 95.6095 501.763 94.0555 499.95 92.9332C498.137 91.8109 495.936 91.2498 493.346 91.2498C490.842 91.2498 488.641 91.8109 486.742 92.9332C484.929 94.0555 483.504 95.6095 482.468 97.5951C481.519 99.5808 481.044 101.955 481.044 104.718V146.027H461.619Z" fill="black"/>
<path d="M411.666 146.03V75.3239H429.796V92.2881L428.501 89.8276C430.055 83.8707 432.601 79.8563 436.141 77.7843C439.767 75.626 444.04 74.5469 448.961 74.5469H453.105V91.3816H447.019C442.271 91.3816 438.429 92.8492 435.494 95.7845C432.558 98.6334 431.091 102.691 431.091 107.957V146.03H411.666Z" fill="black"/>
<path d="M362.41 147.581C355.417 147.581 349.028 145.984 343.244 142.79C337.546 139.596 332.97 135.236 329.517 129.711C326.15 124.099 324.467 117.754 324.467 110.674C324.467 103.509 326.15 97.1635 329.517 91.6383C332.97 86.113 337.546 81.7533 343.244 78.559C349.028 75.3647 355.417 73.7676 362.41 73.7676C369.402 73.7676 375.748 75.3647 381.446 78.559C387.144 81.7533 391.676 86.113 395.043 91.6383C398.496 97.1635 400.223 103.509 400.223 110.674C400.223 117.754 398.496 124.099 395.043 129.711C391.676 135.236 387.144 139.596 381.446 142.79C375.748 145.984 369.402 147.581 362.41 147.581ZM362.41 130.099C365.949 130.099 369.014 129.279 371.604 127.639C374.28 125.998 376.352 123.711 377.82 120.775C379.374 117.84 380.151 114.473 380.151 110.674C380.151 106.876 379.374 103.552 377.82 100.703C376.352 97.7678 374.28 95.48 371.604 93.8397C369.014 92.1131 365.949 91.2498 362.41 91.2498C358.87 91.2498 355.762 92.1131 353.086 93.8397C350.409 95.48 348.294 97.7678 346.74 100.703C345.273 103.552 344.539 106.876 344.539 110.674C344.539 114.473 345.273 117.84 346.74 120.775C348.294 123.711 350.409 125.998 353.086 127.639C355.762 129.279 358.87 130.099 362.41 130.099Z" fill="black"/>
<path d="M254 146.028V49.5527H320.044V67.0349H274.072V91.51H313.569V108.992H274.072V146.028H254Z" fill="black"/>
<defs>
<filter id="filter0_ii_1666_203" x="0" y="-17" width="198.979" height="234.979" filterUnits="userSpaceOnUse" color-interpolation-filters="sRGB">
<feFlood flood-opacity="0" result="BackgroundImageFix"/>
<feBlend mode="normal" in="SourceGraphic" in2="BackgroundImageFix" result="shape"/>
<feColorMatrix in="SourceAlpha" type="matrix" values="0 0 0 0 0 0 0 0 0 0 0 0 0 0 0 0 0 0 127 0" result="hardAlpha"/>
<feOffset dy="-24"/>
<feGaussianBlur stdDeviation="8.5"/>
<feComposite in2="hardAlpha" operator="arithmetic" k2="-1" k3="1"/>
<feColorMatrix type="matrix" values="0 0 0 0 0 0 0 0 0 0 0 0 0 0 0 0 0 0 0.25 0"/>
<feBlend mode="normal" in2="shape" result="effect1_innerShadow_1666_203"/>
<feColorMatrix in="SourceAlpha" type="matrix" values="0 0 0 0 0 0 0 0 0 0 0 0 0 0 0 0 0 0 127 0" result="hardAlpha"/>
<feOffset dy="25"/>
<feGaussianBlur stdDeviation="9.5"/>
<feComposite in2="hardAlpha" operator="arithmetic" k2="-1" k3="1"/>
<feColorMatrix type="matrix" values="0 0 0 0 1 0 0 0 0 1 0 0 0 0 1 0 0 0 0.25 0"/>
<feBlend mode="normal" in2="effect1_innerShadow_1666_203" result="effect2_innerShadow_1666_203"/>
</filter>
<linearGradient id="paint0_linear_1666_203" x1="99.4896" y1="0" x2="99.4896" y2="198.979" gradientUnits="userSpaceOnUse">
<stop stop-color="#2962FF"/>
<stop offset="1" stop-color="#0145FF"/>
</linearGradient>
</defs>
</svg>
